PathFileType	4	(X/Y/Z)	C:/Users/beibeiliu/ov580/test_trc/User1\sequence.32_training_dense_left.trc
DataRate	CameraRate	NumFrames	NumMarkers	Units	OrigDataRate	OrigDataStartFrame	OrigNumFrames
120	120	13	19	mm	120	29	224
Frame#	Time	ThumbCMC			ThumbMCP			ThumbIP			ThumbTip			IndexMCP			IndexPIP			IndexTip			MiddleMCP			MiddlePIP			MiddleTip			RingMCP			RingPIP			RingTip			PinkyMCP			PinkyPIP			PinkyTip			BackHand1			BackHand2			BackHand3	
		X0	Y0	Z0	X1	Y1	Z1	X2	Y2	Z2	X3	Y3	Z3	X4	Y4	Z4	X5	Y5	Z5	X6	Y6	Z6	X7	Y7	Z7	X8	Y8	Z8	X9	Y9	Z9	X10	Y10	Z10	X11	Y11	Z11	X12	Y12	Z12	X13	Y13	Z13	X14	Y14	Z14	X15	Y15	Z15	X16	Y16	Z16	X17	Y17	Z17	X18	Y18	Z18	
28	0.233333	-87.7923	-21.4675	43.5892	-68.4968	-35.8222	31.2299	-49.2556	-41.7776	9.31687	-34.5567	-51.45	-4.94642	-78.6311	-13.8269	-44.6796	-76.8389	-29.1394	-70.5968	-83.5545	-62.7877	-83.6901	-101.721	-16.3933	-55.0414	-101.494	-46.8679	-77.2765	-110.777	-78.0461	-73.4824	-128.959	-23.4215	-57.1207	-126.642	-54.1573	-69.9239	-129.686	-80.7234	-59.7957	-153.988	-22.3957	-43.6798	-151.493	-49.7026	-54.3712	-139.096	-76.2445	-47.7551	-140.002	9.91931	-2.91635	-147.562	12.2799	36.5515	-110.46	7.55511	24.7437	
29	0.241667	-89.3827	-23.6108	47.2709	-67.2422	-36.6625	30.5626	-44.7336	-44.14	14.716	-30.6249	-55.4855	-0.466751	-79.8946	-20.1753	-42.7811	-74.2568	-37.3581	-69.0282	-78.0889	-68.1974	-82.9428	-105.476	-24.0354	-57.9562	-104.051	-52.9228	-74.9501	-110.356	-89.8601	-74.4961	-129.458	-29.4647	-54.434	-129.772	-58.5755	-67.6122	-135.178	-86.5442	-63.8169	-153.256	-27.6043	-41.631	-152.947	-53.0782	-54.3846	-141.865	-79.2571	-53.6134	-135.6	5.85667	1.99056	-144.379	9.68435	33.5128	-107.716	4.58174	24.9655	
30	0.25	-90.3204	-24.3739	43.3257	-62.6006	-38.2436	32.5415	-49.1534	-47.983	15.3587	-31.243	-58.4965	-0.0567868	-74.9039	-29.5596	-44.803	-76.8658	-43.081	-66.9836	-81.373	-72.6944	-86.4428	-107.673	-30.0752	-54.5047	-107.903	-58.4827	-74.3582	-114.26	-89.7073	-79.6385	-131.418	-35.3869	-55.1522	-134.765	-62.9088	-68.7153	-132.623	-90.7293	-69.6513	-158.107	-32.5294	-41.4333	-160.056	-51.4478	-52.9192	-152.591	-80.2052	-65.1911	-138.51	5.17508	-2.97091	-145.442	9.75714	33.2892	-108.246	2.5845	22.3518	
31	0.258333	-88.8365	-25.2359	47.0845	-61.2274	-40.6809	36.5942	-47.6577	-49.0743	18.7737	-27.0322	-60.025	8.478	-78.4766	-34.8674	-44.7411	-74.1586	-49.8907	-64.8236	-77.3977	-73.3277	-85.4862	-105.675	-38.1228	-56.4564	-106.514	-62.5989	-73.3722	-109.804	-91.6992	-86.9987	-135.144	-36.781	-51.9932	-134.188	-59.11	-67.7165	-135.761	-86.7586	-78.6336	-161.276	-31.7096	-37.5213	-165.438	-50.4236	-54.6105	-162.486	-67.0042	-70.4362	-136.31	2.28987	-1.10716	-141.943	7.92887	34.5977	-102.943	-2.4328	22.4902	
32	0.266667	-87.1907	-26.6629	46.5997	-62.9963	-41.105	38.4041	-43.1157	-51.4528	22.2843	-28.2669	-61.7812	10.1801	-77.5008	-38.2341	-38.7034	-76.3727	-53.4962	-65.029	-79.3295	-71.9467	-87.4644	-108.922	-38.3569	-53.8217	-108.507	-59.114	-74.8304	-110.023	-84.88	-93.1511	-132.404	-37.3882	-52.5114	-135.94	-55.385	-70.6708	-137.586	-77.3915	-86.3255	-163.499	-33.6321	-37.4729	-164.293	-46.8284	-54.7998	-168.339	-59.9949	-76.8234	-136.247	-0.679336	-2.08164	-140.65	6.71624	34.0417	-108.424	-4.14695	21.8978	
33	0.275	-84.2716	-26.3879	48.6519	-60.7332	-41.6065	38.7294	-40.5868	-52.901	20.4555	-27.2392	-62.5354	14.7008	-82.3417	-40.9579	-40.7218	-78.9971	-53.1983	-65.6587	-78.6534	-69.7341	-89.0841	-107.601	-40.3293	-56.4379	-108.54	-55.2681	-77.1434	-109.381	-73.0686	-99.3113	-132.391	-38.764	-54.4644	-135.295	-51.8048	-73.4241	-136.986	-68.6665	-95.7585	-165.182	-35.5382	-40.0838	-167.013	-45.5992	-55.0804	-174.864	-48.8555	-75.878	-132.888	-4.22824	-1.62867	-139.179	6.00236	28.7352	-106.152	-4.45522	19.4961	
34	0.283333	-86.6055	-26.974	47.6717	-61.0461	-42.626	41.4673	-43.5317	-52.8777	25.134	-26.341	-62.6823	15.2979	-81.635	-42.2523	-39.0395	-79.0027	-54.0911	-68.5399	-79.6974	-63.1105	-88.7592	-107.623	-37.9936	-58.1714	-108.812	-50.1169	-82.0632	-108.244	-63.1917	-109.345	-135.363	-34.7178	-53.9064	-132.182	-46.0658	-78.1555	-135.581	-57.0274	-101.622	-165.278	-34.3984	-34.0091	-170.69	-43.3756	-55.5414	-175.297	-44.8791	-77.6562	-134.119	-7.00869	-1.25016	-141.581	5.32228	31.9556	-108.066	-6.69514	18.5897	
35	0.291667	-86.1206	-27.3225	49.2535	-61.3744	-41.8733	37.383	-44.9406	-51.8795	23.9414	-25.9904	-62.1841	15.8314	-81.0359	-41.3889	-40.1779	-74.9964	-51.2528	-67.7178	-77.4095	-57.9811	-89.0895	-111.989	-34.3661	-58.7665	-106.708	-44.0735	-82.8193	-105.114	-51.0667	-110.404	-136.764	-32.5413	-53.6381	-133.754	-39.3376	-79.9694	-133.994	-46.7615	-101.294	-167.72	-35.9027	-38.5984	-173.283	-42.0476	-55.7323	-180.274	-41.3544	-73.4614	-137.672	-8.13348	-4.06746	-143.615	5.26186	28.6556	-109.385	-8.90868	20.1253	
36	0.3	-86.0704	-26.4252	48.3446	-63.2205	-41.0774	36.688	-45.0635	-50.6329	24.0452	-21.6614	-57.8607	19.7341	-86.6033	-39.8318	-41.0037	-81.8075	-44.6335	-63.9828	-80.9177	-50.2857	-90.6362	-111.393	-30.9337	-54.5045	-106.169	-36.7476	-78.9667	-109.182	-40.0334	-108.751	-137.874	-29.92	-49.6616	-135.562	-33.5269	-74.3525	-133.63	-37.1183	-104.568	-166.862	-37.0939	-37.0351	-172.875	-41.4713	-53.6081	-183.517	-38.6994	-75.114	-142.449	-9.94964	-0.0669694	-144.298	3.67593	28.2146	-110.879	-9.28229	19.4697	
37	0.308333	-87.8929	-26.6041	46.3449	-63.0146	-39.7731	35.7926	-45.0854	-48.6002	25.1846	-22.588	-54.7966	20.6244	-86.5692	-37.2039	-43.4692	-81.0536	-39.8332	-66.1469	-77.4359	-43.3022	-90.8089	-114.381	-27.7737	-51.3255	-109.329	-30.2414	-78.6945	-109.829	-30.1198	-107.162	-140.165	-26.6819	-48.0053	-134.345	-27.2346	-76.5483	-138.272	-25.8425	-103.329	-168.6	-33.819	-29.8549	-176.448	-38.4741	-49.3918	-178.761	-34.6564	-71.2176	-139.214	-10.6536	3.99764	-148.83	3.93408	30.3519	-107.606	-9.04338	19.3698	
38	0.316667	-90.6731	-25.4526	47.4288	-62.7802	-38.6796	40.7449	-42.478	-45.9571	26.1245	-26.8959	-54.8782	19.6841	-87.0079	-33.5854	-36.8853	-78.3985	-35.6933	-63.7285	-80.7323	-35.2828	-89.6373	-109.797	-24.3711	-49.1464	-108.97	-24.167	-77.3507	-108.797	-19.3446	-107.492	-136.39	-23.7472	-47.5275	-135.602	-21.0926	-72.4581	-136.46	-18.6217	-96.8182	-167.635	-33.2663	-32.0506	-177.302	-34.6568	-48.3262	-184.503	-29.2122	-73.7118	-143.578	-10.874	4.40236	-144.667	2.73554	32.6624	-108.258	-6.79419	21.8635	
39	0.325	-92.5182	-24.0103	48.8941	-68.9765	-37.1925	40.8207	-43.3524	-43.6222	24.1674	-22.1933	-50.6998	15.5279	-87.5723	-29.2668	-40.3361	-82.4408	-29.3417	-59.7071	-80.2422	-27.5751	-88.7932	-115.215	-18.5718	-51.3636	-110.577	-17.1963	-76.798	-111.01	-11.1511	-100.125	-136.777	-19.6772	-44.6332	-137.448	-15.2644	-71.1581	-139.006	-8.48867	-96.045	-169.781	-29.7848	-32.1672	-177.235	-30.557	-49.2616	-183.726	-25.7726	-72.8791	-141.271	-7.35114	5.73182	-149.237	3.41064	34.4775	-109.827	-5.55997	26.1963	
40	0.333333	-87.657	-22.856	51.2504	-66.6916	-33.9611	39.6147	-43.9936	-38.2671	25.2263	-23.3707	-44.8308	17.7629	-89.6097	-23.0076	-38.781	-83.1082	-23.2682	-60.4839	-84.774	-19.4185	-85.2388	-115.632	-13.8942	-48.3971	-111.79	-10.5504	-71.7697	-106.793	-1.64004	-97.9081	-140.903	-14.7419	-43.4165	-138.138	-8.76719	-66.578	-136.612	-0.753623	-92.5055	-167.028	-25.291	-27.9724	-177.647	-25.4685	-45.7244	-180.085	-16.7701	-68.7009	-145.972	-5.62863	4.13295	-149.588	5.26069	37.4237	-113.505	-1.94873	26.6533	
